<svg width="52" height="41" viewBox="0 0 52 41" fill="none" xmlns="http://www.w3.org/2000/svg">
<g clip-path="url(#clip0)">
<path d="M25.5451 -3.85777C13.655 -3.84279 4.04009 7.33107 4.05929 21.0972C4.07466 32.113 10.2533 41.447 18.807 44.7297C19.8834 44.963 20.2768 44.191 20.2758 43.5292C20.275 42.9373 20.255 41.3689 20.243 39.2907C14.2589 40.8014 12.9896 35.9557 12.9896 35.9557C12.0064 33.0798 10.5903 32.312 10.5903 32.312C8.63882 30.7691 10.7388 30.7982 10.7388 30.7982C12.9002 30.969 14.0387 33.3625 14.0387 33.3625C15.9628 37.1716 19.0801 36.0662 20.3095 35.4285C20.501 33.8153 21.0536 32.7175 21.6678 32.0931C16.8876 31.4755 11.8613 29.3381 11.8479 19.7873C11.8442 17.0666 12.675 14.8417 14.0535 13.0959C13.8105 12.4663 13.0807 9.93255 14.2326 6.49803C14.2326 6.49803 16.034 5.82774 20.1544 9.04634C21.8752 8.49032 23.7041 8.2132 25.5333 8.1982C27.3625 8.20859 29.1921 8.4811 30.9146 9.03278C34.999 5.80385 36.8023 6.46959 36.8023 6.46959C37.9638 9.9012 37.241 12.4367 37.0267 13.067C38.401 14.8093 39.2381 17.0321 39.2419 19.7528C39.2552 29.3292 34.2277 31.4429 29.4403 32.0621C30.1945 32.8094 30.8961 34.337 30.8993 36.6729C30.904 40.0089 30.8808 42.6893 30.882 43.499C30.8829 44.1523 31.2606 44.9318 32.3631 44.6809C40.9686 41.3976 47.1158 32.0419 47.1005 21.043C47.0813 7.27684 37.4299 -3.87275 25.5451 -3.85777Z" fill="white"/>
</g>
<defs>
<clipPath id="clip0">
<rect width="51.1581" height="40.9075" fill="white"/>
</clipPath>
</defs>
</svg>
