<svg width="52" height="41" viewBox="0 0 52 41" fill="none" xmlns="http://www.w3.org/2000/svg">
<g clip-path="url(#clip0)">
<path d="M0 12.7841L8.38601e-07 28.125C1.2245e-06 35.1844 7.15918 40.9091 15.9875 40.9091H35.1724C44.0007 40.9091 51.1599 35.1844 51.1599 28.125V12.7841C51.1599 5.72472 44.0007 -3.08573e-07 35.1724 0L15.9875 6.70568e-07C7.15918 9.79145e-07 -3.85904e-07 5.72472 0 12.7841ZM35.1724 3.83523C41.3435 3.83523 46.3636 7.84943 46.3636 12.7841V28.125C46.3636 33.0596 41.3435 37.0739 35.1724 37.0739H15.9875C9.8163 37.0739 4.79624 33.0596 4.79624 28.125V12.7841C4.79624 7.84943 9.8163 3.83523 15.9875 3.83523H35.1724Z" fill="white"/>
<path d="M12.79 20.4546C12.79 26.1026 18.5166 30.6818 25.5799 30.6818C32.6432 30.6818 38.3699 26.1026 38.3699 20.4546C38.3699 14.8065 32.6432 10.2273 25.5799 10.2273C18.5166 10.2273 12.79 14.8065 12.79 20.4546ZM33.5737 20.4546C33.5737 23.9778 29.986 26.8466 25.5799 26.8466C21.1706 26.8466 17.5862 23.9779 17.5862 20.4546C17.5862 16.9313 21.1706 14.0625 25.5799 14.0625C29.986 14.0625 33.5737 16.9312 33.5737 20.4546Z" fill="white"/>
<path d="M13.5349 9.45971C13.5349 8.70707 12.7719 8.09692 11.8307 8.09692C10.8894 8.09692 10.1264 8.70707 10.1264 9.45971C10.1264 10.2124 10.8894 10.8225 11.8307 10.8225C12.7719 10.8225 13.5349 10.2124 13.5349 9.45971Z" fill="white"/>
</g>
<defs>
<clipPath id="clip0">
<rect width="51.1599" height="40.9091" fill="white"/>
</clipPath>
</defs>
</svg>
