<svg width="52" height="41" viewBox="0 0 52 41" fill="none" xmlns="http://www.w3.org/2000/svg">
<g clip-path="url(#clip0)">
<path d="M25.5799 40.9091C39.7108 40.9091 51.1599 31.754 51.1599 20.4545C51.1599 9.15511 39.7108 0 25.5799 0C11.4492 0 0 9.15511 0 20.4545C0 31.754 11.4492 40.9091 25.5799 40.9091ZM11.705 20.0114L36.3684 12.4074C37.513 12.0767 38.5126 12.6307 38.1417 14.0148L38.144 14.013L33.9446 29.833C33.6334 30.9545 32.7998 31.2273 31.6339 30.6989L25.2389 26.93L22.1543 29.3063C21.8132 29.579 21.5255 29.8091 20.8647 29.8091L21.3188 24.6052L33.1709 16.0432C33.6866 15.68 33.0556 15.4756 32.3757 15.837L17.7291 23.2107L11.415 21.6359C10.0444 21.288 10.0145 20.5398 11.705 20.0114Z" fill="white"/>
</g>
<defs>
<clipPath id="clip0">
<rect width="51.1599" height="40.9091" fill="white"/>
</clipPath>
</defs>
</svg>
